<?xml version="1.0" encoding="UTF-8" standalone="no"?>
<!DOCTYPE svg PUBLIC "-//W3C//DTD SVG 1.1//EN"
 "http://www.w3.org/Graphics/SVG/1.1/DTD/svg11.dtd">
<!-- Generated by graphviz version 14.1.4 (20260321.0153)
 -->
<!-- Title: adapter_decision Pages: 1 -->
<svg width="774pt" height="890pt"
 viewBox="0.00 0.00 774.00 890.00" xmlns="http://www.w3.org/2000/svg" xmlns:xlink="http://www.w3.org/1999/xlink">
<g id="graph0" class="graph" transform="scale(1 1) rotate(0) translate(28.8 860.79)">
<title>adapter_decision</title>
<polygon fill="white" stroke="none" points="-28.8,28.8 -28.8,-860.79 745.05,-860.79 745.05,28.8 -28.8,28.8"/>
<!-- start -->
<g id="node1" class="node">
<title>start</title>
<ellipse fill="#f5f5f5" stroke="#999999" stroke-width="1.5" cx="471.88" cy="-806.18" rx="77.07" ry="25.81"/>
<text xml:space="preserve" text-anchor="middle" x="471.88" y="-809.03" font-family="Arial" font-size="12.00">Input: GOES data</text>
<text xml:space="preserve" text-anchor="middle" x="471.88" y="-794.78" font-family="Arial" font-size="12.00">for year/month</text>
</g>
<!-- d_inst -->
<g id="node2" class="node">
<title>d_inst</title>
<path fill="#0039a6" stroke="black" stroke-width="1.5" d="M460.56,-731.38C460.56,-731.38 383.94,-704.36 383.94,-704.36 378.28,-702.36 378.28,-698.37 383.94,-696.38 383.94,-696.38 460.56,-669.36 460.56,-669.36 466.22,-667.36 477.53,-667.36 483.19,-669.36 483.19,-669.36 559.81,-696.38 559.81,-696.38 565.47,-698.37 565.47,-702.36 559.81,-704.36 559.81,-704.36 483.19,-731.38 483.19,-731.38 477.53,-733.37 466.22,-733.37 460.56,-731.38"/>
<text xml:space="preserve" text-anchor="middle" x="471.88" y="-703.42" font-family="Arial" font-size="11.00" fill="white">Which instrument</text>
<text xml:space="preserve" text-anchor="middle" x="471.88" y="-689.92" font-family="Arial" font-size="11.00" fill="white">for this year?</text>
</g>
<!-- start&#45;&gt;d_inst -->
<g id="edge1" class="edge">
<title>start&#45;&gt;d_inst</title>
<path fill="none" stroke="#555555" d="M471.88,-779.78C471.88,-769.36 471.88,-757 471.88,-745.2"/>
<polygon fill="#555555" stroke="#555555" points="474.68,-745.42 471.88,-737.42 469.08,-745.42 474.68,-745.42"/>
</g>
<!-- eps_path -->
<g id="node3" class="node">
<title>eps_path</title>
<path fill="#dae5f5" stroke="#0039a6" stroke-width="1.5" d="M263.38,-591.12C263.38,-591.12 178.38,-591.12 178.38,-591.12 172.38,-591.12 166.38,-585.12 166.38,-579.12 166.38,-579.12 166.38,-567.12 166.38,-567.12 166.38,-561.12 172.38,-555.12 178.38,-555.12 178.38,-555.12 263.38,-555.12 263.38,-555.12 269.38,-555.12 275.38,-561.12 275.38,-567.12 275.38,-567.12 275.38,-579.12 275.38,-579.12 275.38,-585.12 269.38,-591.12 263.38,-591.12"/>
<text xml:space="preserve" text-anchor="middle" x="220.88" y="-568.84" font-family="Arial" font-size="12.00" fill="#0a2a6e">EPS (1995&#45;2010)</text>
</g>
<!-- d_inst&#45;&gt;eps_path -->
<g id="edge2" class="edge">
<title>d_inst&#45;&gt;eps_path</title>
<path fill="none" stroke="#555555" d="M430.66,-679.26C408.97,-668.65 381.95,-655.37 357.88,-643.37 326.34,-627.66 290.85,-609.7 263.89,-596.02"/>
<polygon fill="#555555" stroke="#555555" points="265.2,-593.54 256.8,-592.42 262.66,-598.54 265.2,-593.54"/>
<text xml:space="preserve" text-anchor="middle" x="380.38" y="-627.87" font-family="Arial" font-size="10.00">1995&#45;2010</text>
</g>
<!-- epead_path -->
<g id="node4" class="node">
<title>epead_path</title>
<path fill="#dae5f5" stroke="#0039a6" stroke-width="1.5" d="M426,-591.12C426,-591.12 323.75,-591.12 323.75,-591.12 317.75,-591.12 311.75,-585.12 311.75,-579.12 311.75,-579.12 311.75,-567.12 311.75,-567.12 311.75,-561.12 317.75,-555.12 323.75,-555.12 323.75,-555.12 426,-555.12 426,-555.12 432,-555.12 438,-561.12 438,-567.12 438,-567.12 438,-579.12 438,-579.12 438,-585.12 432,-591.12 426,-591.12"/>
<text xml:space="preserve" text-anchor="middle" x="374.88" y="-568.84" font-family="Arial" font-size="12.00" fill="#0a2a6e">EPEAD (2010&#45;2020)</text>
</g>
<!-- d_inst&#45;&gt;epead_path -->
<g id="edge3" class="edge">
<title>d_inst&#45;&gt;epead_path</title>
<path fill="none" stroke="#555555" d="M450.83,-672.19C433.95,-650.4 410.47,-620.08 394.1,-598.94"/>
<polygon fill="#555555" stroke="#555555" points="396.46,-597.41 389.34,-592.8 392.03,-600.84 396.46,-597.41"/>
<text xml:space="preserve" text-anchor="middle" x="448.78" y="-627.87" font-family="Arial" font-size="10.00">2010&#45;2020</text>
</g>
<!-- sgps_path -->
<g id="node5" class="node">
<title>sgps_path</title>
<path fill="#fff3e6" stroke="#cc5500" stroke-width="1.5" d="M579.88,-591.12C579.88,-591.12 485.88,-591.12 485.88,-591.12 479.88,-591.12 473.88,-585.12 473.88,-579.12 473.88,-579.12 473.88,-567.12 473.88,-567.12 473.88,-561.12 479.88,-555.12 485.88,-555.12 485.88,-555.12 579.88,-555.12 579.88,-555.12 585.88,-555.12 591.88,-561.12 591.88,-567.12 591.88,-567.12 591.88,-579.12 591.88,-579.12 591.88,-585.12 585.88,-591.12 579.88,-591.12"/>
<text xml:space="preserve" text-anchor="middle" x="532.88" y="-568.84" font-family="Arial" font-size="12.00" fill="#7a3300">SGPS (2020&#45;2025)</text>
</g>
<!-- d_inst&#45;&gt;sgps_path -->
<g id="edge4" class="edge">
<title>d_inst&#45;&gt;sgps_path</title>
<path fill="none" stroke="#555555" d="M486.33,-669.69C496.64,-648.51 510.38,-620.32 520.25,-600.05"/>
<polygon fill="#555555" stroke="#555555" points="522.7,-601.4 523.69,-592.98 517.67,-598.94 522.7,-601.4"/>
<text xml:space="preserve" text-anchor="middle" x="532.13" y="-627.87" font-family="Arial" font-size="10.00">2020&#45;2025</text>
</g>
<!-- gap -->
<g id="node14" class="node">
<title>gap</title>
<path fill="#fff0f0" stroke="#cc0000" stroke-width="1.5" d="M704.25,-597.37C704.25,-597.37 639.5,-597.37 639.5,-597.37 633.5,-597.37 627.5,-591.37 627.5,-585.37 627.5,-585.37 627.5,-560.87 627.5,-560.87 627.5,-554.87 633.5,-548.87 639.5,-548.87 639.5,-548.87 704.25,-548.87 704.25,-548.87 710.25,-548.87 716.25,-554.87 716.25,-560.87 716.25,-560.87 716.25,-585.37 716.25,-585.37 716.25,-591.37 710.25,-597.37 704.25,-597.37"/>
<text xml:space="preserve" text-anchor="middle" x="671.88" y="-582.92" font-family="Arial" font-size="11.00" fill="#990000">2020 Apr&#45;Oct:</text>
<text xml:space="preserve" text-anchor="middle" x="671.88" y="-569.42" font-family="Arial" font-size="11.00" fill="#990000">No GOES data</text>
<text xml:space="preserve" text-anchor="middle" x="671.88" y="-555.92" font-family="Arial" font-size="11.00" fill="#990000">(return empty)</text>
</g>
<!-- d_inst&#45;&gt;gap -->
<g id="edge5" class="edge">
<title>d_inst&#45;&gt;gap</title>
<path fill="none" stroke="#cc0000" stroke-dasharray="5,2" d="M508.26,-677.49C525.22,-667.22 545.64,-654.76 563.88,-643.37 584.79,-630.3 607.82,-615.58 627.22,-603.08"/>
<polygon fill="#cc0000" stroke="#cc0000" points="628.54,-605.56 633.75,-598.87 625.51,-600.85 628.54,-605.56"/>
<text xml:space="preserve" text-anchor="middle" x="616.54" y="-633.87" font-family="Arial" font-size="10.00">2020</text>
<text xml:space="preserve" text-anchor="middle" x="616.54" y="-621.87" font-family="Arial" font-size="10.00">Apr&#45;Oct</text>
</g>
<!-- d_p3 -->
<g id="node6" class="node">
<title>d_p3</title>
<path fill="#0039a6" stroke="black" stroke-width="1.5" d="M209.64,-499.65C209.64,-499.65 138.86,-473.09 138.86,-473.09 133.24,-470.98 133.24,-466.76 138.86,-464.65 138.86,-464.65 209.64,-438.09 209.64,-438.09 215.26,-435.98 226.49,-435.98 232.11,-438.09 232.11,-438.09 302.89,-464.65 302.89,-464.65 308.51,-466.76 308.51,-470.98 302.89,-473.09 302.89,-473.09 232.11,-499.65 232.11,-499.65 226.49,-501.76 215.26,-501.76 209.64,-499.65"/>
<text xml:space="preserve" text-anchor="middle" x="220.88" y="-471.92" font-family="Arial" font-size="11.00" fill="white">p3_flux_ic</text>
<text xml:space="preserve" text-anchor="middle" x="220.88" y="-458.42" font-family="Arial" font-size="11.00" fill="white">present &amp; valid?</text>
</g>
<!-- eps_path&#45;&gt;d_p3 -->
<g id="edge6" class="edge">
<title>eps_path&#45;&gt;d_p3</title>
<path fill="none" stroke="#555555" d="M220.88,-554.77C220.88,-543.46 220.88,-528.16 220.88,-513.66"/>
<polygon fill="#555555" stroke="#555555" points="223.68,-513.81 220.88,-505.81 218.08,-513.81 223.68,-513.81"/>
</g>
<!-- use_epead -->
<g id="node11" class="node">
<title>use_epead</title>
<path fill="#e6faef" stroke="#1b7340" stroke-width="1.5" d="M455.75,-411.87C455.75,-411.87 352,-411.87 352,-411.87 346,-411.87 340,-405.87 340,-399.87 340,-399.87 340,-373.12 340,-373.12 340,-367.12 346,-361.12 352,-361.12 352,-361.12 455.75,-361.12 455.75,-361.12 461.75,-361.12 467.75,-367.12 467.75,-373.12 467.75,-373.12 467.75,-399.87 467.75,-399.87 467.75,-405.87 461.75,-411.87 455.75,-411.87"/>
<text xml:space="preserve" text-anchor="middle" x="403.88" y="-396.47" font-family="Arial" font-size="12.00" fill="#0a3d1a">Read ZPGT10E</text>
<text xml:space="preserve" text-anchor="middle" x="403.88" y="-382.22" font-family="Arial" font-size="12.00" fill="#0a3d1a">(east sensor integral)</text>
<text xml:space="preserve" text-anchor="middle" x="403.88" y="-367.97" font-family="Arial" font-size="12.00" fill="#0a3d1a">fallback: ZPGT10W</text>
</g>
<!-- epead_path&#45;&gt;use_epead -->
<g id="edge11" class="edge">
<title>epead_path&#45;&gt;use_epead</title>
<path fill="none" stroke="#555555" d="M377.66,-554.42C382.46,-523.83 392.39,-460.62 398.55,-421.37"/>
<polygon fill="#555555" stroke="#555555" points="401.25,-422.25 399.73,-413.91 395.72,-421.38 401.25,-422.25"/>
</g>
<!-- use_sgps -->
<g id="node12" class="node">
<title>use_sgps</title>
<path fill="#e6faef" stroke="#1b7340" stroke-width="1.5" d="M582.38,-220.12C582.38,-220.12 473.38,-220.12 473.38,-220.12 467.38,-220.12 461.38,-214.12 461.38,-208.12 461.38,-208.12 461.38,-181.37 461.38,-181.37 461.38,-175.37 467.38,-169.37 473.38,-169.37 473.38,-169.37 582.38,-169.37 582.38,-169.37 588.38,-169.37 594.38,-175.37 594.38,-181.37 594.38,-181.37 594.38,-208.12 594.38,-208.12 594.38,-214.12 588.38,-220.12 582.38,-220.12"/>
<text xml:space="preserve" text-anchor="middle" x="527.88" y="-204.72" font-family="Arial" font-size="12.00" fill="#0a3d1a">Derive from 13 diff.</text>
<text xml:space="preserve" text-anchor="middle" x="527.88" y="-190.47" font-family="Arial" font-size="12.00" fill="#0a3d1a">channels (&gt;= 10 MeV)</text>
<text xml:space="preserve" text-anchor="middle" x="527.88" y="-176.22" font-family="Arial" font-size="12.00" fill="#0a3d1a">sum(flux x dE)</text>
</g>
<!-- sgps_path&#45;&gt;use_sgps -->
<g id="edge12" class="edge">
<title>sgps_path&#45;&gt;use_sgps</title>
<path fill="none" stroke="#555555" d="M532.64,-554.47C531.86,-496 529.37,-307.95 528.33,-230.04"/>
<polygon fill="#555555" stroke="#555555" points="531.13,-230.14 528.23,-222.18 525.53,-230.22 531.13,-230.14"/>
</g>
<!-- use_p3 -->
<g id="node7" class="node">
<title>use_p3</title>
<path fill="#e6faef" stroke="#1b7340" stroke-width="1.5" d="M127.75,-212.99C127.75,-212.99 12,-212.99 12,-212.99 6,-212.99 0,-206.99 0,-200.99 0,-200.99 0,-188.49 0,-188.49 0,-182.49 6,-176.49 12,-176.49 12,-176.49 127.75,-176.49 127.75,-176.49 133.75,-176.49 139.75,-182.49 139.75,-188.49 139.75,-188.49 139.75,-200.99 139.75,-200.99 139.75,-206.99 133.75,-212.99 127.75,-212.99"/>
<text xml:space="preserve" text-anchor="middle" x="69.88" y="-197.59" font-family="Arial" font-size="12.00" fill="#0a3d1a">Use p3_flux_ic</text>
<text xml:space="preserve" text-anchor="middle" x="69.88" y="-183.34" font-family="Arial" font-size="12.00" fill="#0a3d1a">(pre&#45;computed integral)</text>
</g>
<!-- d_p3&#45;&gt;use_p3 -->
<g id="edge7" class="edge">
<title>d_p3&#45;&gt;use_p3</title>
<path fill="none" stroke="#555555" d="M193.28,-444.02C167.25,-420.05 129.02,-380.77 106.88,-339.12 86.93,-301.6 77.31,-252.75 73,-222.85"/>
<polygon fill="#555555" stroke="#555555" points="75.79,-222.53 71.94,-214.98 70.24,-223.28 75.79,-222.53"/>
<text xml:space="preserve" text-anchor="middle" x="168.21" y="-382.99" font-family="Arial" font-size="10.00">yes</text>
</g>
<!-- d_alt -->
<g id="node8" class="node">
<title>d_alt</title>
<path fill="#0039a6" stroke="black" stroke-width="1.5" d="M239.67,-334.82C239.67,-334.82 135.83,-294.92 135.83,-294.92 130.23,-292.77 130.23,-288.47 135.83,-286.32 135.83,-286.32 239.67,-246.42 239.67,-246.42 245.27,-244.27 256.48,-244.27 262.08,-246.42 262.08,-246.42 365.92,-286.32 365.92,-286.32 371.52,-288.47 371.52,-292.77 365.92,-294.92 365.92,-294.92 262.08,-334.82 262.08,-334.82 256.48,-336.97 245.27,-336.97 239.67,-334.82"/>
<text xml:space="preserve" text-anchor="middle" x="250.88" y="-300.42" font-family="Arial" font-size="11.00" fill="white">Alternate satellite</text>
<text xml:space="preserve" text-anchor="middle" x="250.88" y="-286.92" font-family="Arial" font-size="11.00" fill="white">available?</text>
<text xml:space="preserve" text-anchor="middle" x="250.88" y="-273.42" font-family="Arial" font-size="11.00" fill="white">(GOES&#45;11 / GOES&#45;10)</text>
</g>
<!-- d_p3&#45;&gt;d_alt -->
<g id="edge8" class="edge">
<title>d_p3&#45;&gt;d_alt</title>
<path fill="none" stroke="#555555" d="M226.38,-435.54C230.64,-410.52 236.63,-375.31 241.62,-345.98"/>
<polygon fill="#555555" stroke="#555555" points="244.37,-346.53 242.95,-338.17 238.85,-345.59 244.37,-346.53"/>
<text xml:space="preserve" text-anchor="middle" x="261.06" y="-394.99" font-family="Arial" font-size="10.00">no</text>
<text xml:space="preserve" text-anchor="middle" x="261.06" y="-382.99" font-family="Arial" font-size="10.00">(GOES&#45;12</text>
<text xml:space="preserve" text-anchor="middle" x="261.06" y="-370.99" font-family="Arial" font-size="10.00">all &#45;99999)</text>
</g>
<!-- done -->
<g id="node13" class="node">
<title>done</title>
<ellipse fill="#f5f5f5" stroke="#999999" stroke-width="1.5" cx="317.88" cy="-25.81" rx="72.83" ry="25.81"/>
<text xml:space="preserve" text-anchor="middle" x="317.88" y="-28.66" font-family="Arial" font-size="12.00">Return &gt;10 MeV</text>
<text xml:space="preserve" text-anchor="middle" x="317.88" y="-14.41" font-family="Arial" font-size="12.00">flux in pfu</text>
</g>
<!-- use_p3&#45;&gt;done -->
<g id="edge13" class="edge">
<title>use_p3&#45;&gt;done</title>
<path fill="none" stroke="#555555" d="M72.23,-175.78C76.01,-154.11 85.42,-117.94 107.88,-96.62 143.51,-62.79 195.96,-45.34 239.52,-36.34"/>
<polygon fill="#555555" stroke="#555555" points="239.88,-39.13 247.19,-34.84 238.8,-33.63 239.88,-39.13"/>
</g>
<!-- use_alt -->
<g id="node9" class="node">
<title>use_alt</title>
<path fill="#fff7e6" stroke="#b36b00" stroke-width="1.5" d="M211.38,-147.37C211.38,-147.37 138.38,-147.37 138.38,-147.37 132.38,-147.37 126.38,-141.37 126.38,-135.37 126.38,-135.37 126.38,-108.62 126.38,-108.62 126.38,-102.62 132.38,-96.62 138.38,-96.62 138.38,-96.62 211.38,-96.62 211.38,-96.62 217.38,-96.62 223.38,-102.62 223.38,-108.62 223.38,-108.62 223.38,-135.37 223.38,-135.37 223.38,-141.37 217.38,-147.37 211.38,-147.37"/>
<text xml:space="preserve" text-anchor="middle" x="174.88" y="-131.97" font-family="Arial" font-size="12.00" fill="#5a3800">Use alternate</text>
<text xml:space="preserve" text-anchor="middle" x="174.88" y="-117.72" font-family="Arial" font-size="12.00" fill="#5a3800">p3_flux_ic</text>
<text xml:space="preserve" text-anchor="middle" x="174.88" y="-103.47" font-family="Arial" font-size="12.00" fill="#5a3800">(e.g. GOES&#45;11)</text>
</g>
<!-- d_alt&#45;&gt;use_alt -->
<g id="edge9" class="edge">
<title>d_alt&#45;&gt;use_alt</title>
<path fill="none" stroke="#555555" d="M232.28,-248.86C219.33,-220.47 202.27,-183.06 190.12,-156.42"/>
<polygon fill="#555555" stroke="#555555" points="192.7,-155.33 186.83,-149.21 187.6,-157.65 192.7,-155.33"/>
<text xml:space="preserve" text-anchor="middle" x="225.3" y="-191.24" font-family="Arial" font-size="10.00">yes</text>
</g>
<!-- derive -->
<g id="node10" class="node">
<title>derive</title>
<path fill="#fff7e6" stroke="#b36b00" stroke-width="1.5" d="M364.5,-147.37C364.5,-147.37 271.25,-147.37 271.25,-147.37 265.25,-147.37 259.25,-141.37 259.25,-135.37 259.25,-135.37 259.25,-108.62 259.25,-108.62 259.25,-102.62 265.25,-96.62 271.25,-96.62 271.25,-96.62 364.5,-96.62 364.5,-96.62 370.5,-96.62 376.5,-102.62 376.5,-108.62 376.5,-108.62 376.5,-135.37 376.5,-135.37 376.5,-141.37 370.5,-147.37 364.5,-147.37"/>
<text xml:space="preserve" text-anchor="middle" x="317.88" y="-131.97" font-family="Arial" font-size="12.00" fill="#5a3800">Derive from</text>
<text xml:space="preserve" text-anchor="middle" x="317.88" y="-117.72" font-family="Arial" font-size="12.00" fill="#5a3800">differential P3&#45;P7</text>
<text xml:space="preserve" text-anchor="middle" x="317.88" y="-103.47" font-family="Arial" font-size="12.00" fill="#5a3800">(flat&#45;spectrum corr.)</text>
</g>
<!-- d_alt&#45;&gt;derive -->
<g id="edge10" class="edge">
<title>d_alt&#45;&gt;derive</title>
<path fill="none" stroke="#555555" d="M267.61,-248C278.96,-219.77 293.77,-182.93 304.37,-156.57"/>
<polygon fill="#555555" stroke="#555555" points="306.84,-157.93 307.23,-149.46 301.65,-155.84 306.84,-157.93"/>
<text xml:space="preserve" text-anchor="middle" x="303.33" y="-191.24" font-family="Arial" font-size="10.00">no</text>
</g>
<!-- use_alt&#45;&gt;done -->
<g id="edge14" class="edge">
<title>use_alt&#45;&gt;done</title>
<path fill="none" stroke="#555555" d="M212.82,-96C232.4,-83.11 256.31,-67.36 276.38,-54.14"/>
<polygon fill="#555555" stroke="#555555" points="277.74,-56.59 282.88,-49.86 274.66,-51.92 277.74,-56.59"/>
</g>
<!-- derive&#45;&gt;done -->
<g id="edge15" class="edge">
<title>derive&#45;&gt;done</title>
<path fill="none" stroke="#555555" d="M317.88,-96.25C317.88,-85.6 317.88,-72.97 317.88,-61.43"/>
<polygon fill="#555555" stroke="#555555" points="320.68,-61.56 317.88,-53.56 315.08,-61.56 320.68,-61.56"/>
</g>
<!-- use_epead&#45;&gt;done -->
<g id="edge16" class="edge">
<title>use_epead&#45;&gt;done</title>
<path fill="none" stroke="#555555" d="M409.34,-360.44C419.4,-308.42 436.22,-186.13 394.88,-96.62 387.27,-80.16 373.77,-65.86 360.18,-54.57"/>
<polygon fill="#555555" stroke="#555555" points="362.29,-52.67 354.28,-49.89 358.8,-57.05 362.29,-52.67"/>
</g>
<!-- use_sgps&#45;&gt;done -->
<g id="edge17" class="edge">
<title>use_sgps&#45;&gt;done</title>
<path fill="none" stroke="#555555" d="M519.97,-169C510.09,-141.87 490.63,-98.85 459.88,-73.62 440.57,-57.78 415.72,-47.23 392.22,-40.24"/>
<polygon fill="#555555" stroke="#555555" points="393.21,-37.61 384.75,-38.14 391.69,-43 393.21,-37.61"/>
</g>
</g>
</svg>
