<?xml version="1.0" encoding="UTF-8" standalone="no"?>
<!DOCTYPE svg PUBLIC "-//W3C//DTD SVG 1.1//EN"
 "http://www.w3.org/Graphics/SVG/1.1/DTD/svg11.dtd">
<!-- Generated by graphviz version 14.1.4 (20260321.0153)
 -->
<!-- Title: detector_state Pages: 1 -->
<svg width="414pt" height="1145pt"
 viewBox="0.00 0.00 414.00 1145.00" xmlns="http://www.w3.org/2000/svg" xmlns:xlink="http://www.w3.org/1999/xlink">
<g id="graph0" class="graph" transform="scale(1 1) rotate(0) translate(28.8 1115.79)">
<title>detector_state</title>
<polygon fill="white" stroke="none" points="-28.8,28.8 -28.8,-1115.79 384.8,-1115.79 384.8,28.8 -28.8,28.8"/>
<!-- idle -->
<g id="node1" class="node">
<title>idle</title>
<ellipse fill="#f5f5f5" stroke="#999999" stroke-width="1.5" cx="178" cy="-1060.12" rx="77.07" ry="26.87"/>
<text xml:space="preserve" text-anchor="middle" x="178" y="-1062.77" font-family="Arial" font-size="13.00">IDLE</text>
<text xml:space="preserve" text-anchor="middle" x="178" y="-1047.77" font-family="Arial" font-size="13.00">No active event</text>
</g>
<!-- check_entry -->
<g id="node2" class="node">
<title>check_entry</title>
<path fill="#0039a6" stroke="black" stroke-width="1.5" d="M166.83,-954.86C166.83,-954.86 65.92,-915.14 65.92,-915.14 60.33,-912.95 60.33,-908.55 65.92,-906.36 65.92,-906.36 166.83,-866.64 166.83,-866.64 172.42,-864.45 183.58,-864.45 189.17,-866.64 189.17,-866.64 290.08,-906.36 290.08,-906.36 295.67,-908.55 295.67,-912.95 290.08,-915.14 290.08,-915.14 189.17,-954.86 189.17,-954.86 183.58,-957.05 172.42,-957.05 166.83,-954.86"/>
<text xml:space="preserve" text-anchor="middle" x="178" y="-920.55" font-family="Arial" font-size="11.00" fill="white">flux &gt;= 10 pfu</text>
<text xml:space="preserve" text-anchor="middle" x="178" y="-907.05" font-family="Arial" font-size="11.00" fill="white">AND</text>
<text xml:space="preserve" text-anchor="middle" x="178" y="-893.55" font-family="Arial" font-size="11.00" fill="white">3/4 gradients positive?</text>
</g>
<!-- idle&#45;&gt;check_entry -->
<g id="edge1" class="edge">
<title>idle&#45;&gt;check_entry</title>
<path fill="none" stroke="#555555" d="M178,-1032.77C178,-1015.1 178,-991.12 178,-969.17"/>
<polygon fill="#555555" stroke="#555555" points="180.8,-969.42 178,-961.42 175.2,-969.42 180.8,-969.42"/>
<text xml:space="preserve" text-anchor="middle" x="200.88" y="-998.75" font-family="Arial" font-size="10.00">next</text>
<text xml:space="preserve" text-anchor="middle" x="200.88" y="-986.75" font-family="Arial" font-size="10.00">timestamp</text>
</g>
<!-- check_entry&#45;&gt;idle -->
<g id="edge3" class="edge">
<title>check_entry&#45;&gt;idle</title>
<path fill="none" stroke="#555555" stroke-dasharray="5,2" d="M159.28,-952.5C153.63,-969.67 149.89,-989.89 154,-1008.25 155.25,-1013.82 157.17,-1019.49 159.41,-1024.93"/>
<polygon fill="#555555" stroke="#555555" points="156.68,-1025.7 162.5,-1031.86 161.8,-1023.42 156.68,-1025.7"/>
<text xml:space="preserve" text-anchor="middle" x="161.5" y="-992.75" font-family="Arial" font-size="10.00">NO</text>
</g>
<!-- in_event -->
<g id="node3" class="node">
<title>in_event</title>
<path fill="#e6faef" stroke="#1b7340" stroke-width="1.5" d="M234,-788.25C234,-788.25 122,-788.25 122,-788.25 116,-788.25 110,-782.25 110,-776.25 110,-776.25 110,-762.25 110,-762.25 110,-756.25 116,-750.25 122,-750.25 122,-750.25 234,-750.25 234,-750.25 240,-750.25 246,-756.25 246,-762.25 246,-762.25 246,-776.25 246,-776.25 246,-782.25 240,-788.25 234,-788.25"/>
<text xml:space="preserve" text-anchor="middle" x="178" y="-771.9" font-family="Arial" font-size="13.00" fill="#0a3d1a">IN EVENT</text>
<text xml:space="preserve" text-anchor="middle" x="178" y="-756.9" font-family="Arial" font-size="13.00" fill="#0a3d1a">Recording detection</text>
</g>
<!-- check_entry&#45;&gt;in_event -->
<g id="edge2" class="edge">
<title>check_entry&#45;&gt;in_event</title>
<path fill="none" stroke="#555555" d="M178,-861.74C178,-840.6 178,-816.49 178,-798.33"/>
<polygon fill="#555555" stroke="#555555" points="180.8,-798.42 178,-790.42 175.2,-798.42 180.8,-798.42"/>
<text xml:space="preserve" text-anchor="middle" x="206.88" y="-827.75" font-family="Arial" font-size="10.00">YES</text>
<text xml:space="preserve" text-anchor="middle" x="206.88" y="-815.75" font-family="Arial" font-size="10.00">(event starts)</text>
</g>
<!-- check_exit -->
<g id="node4" class="node">
<title>check_exit</title>
<path fill="#0039a6" stroke="black" stroke-width="1.5" d="M112.42,-661.11C112.42,-661.11 69.24,-649.39 69.24,-649.39 63.45,-647.82 63.45,-644.68 69.24,-643.11 69.24,-643.11 112.42,-631.39 112.42,-631.39 118.21,-629.82 129.79,-629.82 135.58,-631.39 135.58,-631.39 178.76,-643.11 178.76,-643.11 184.55,-644.68 184.55,-647.82 178.76,-649.39 178.76,-649.39 135.58,-661.11 135.58,-661.11 129.79,-662.68 118.21,-662.68 112.42,-661.11"/>
<text xml:space="preserve" text-anchor="middle" x="124" y="-642.55" font-family="Arial" font-size="11.00" fill="white">flux &lt; 5 pfu?</text>
</g>
<!-- in_event&#45;&gt;check_exit -->
<g id="edge4" class="edge">
<title>in_event&#45;&gt;check_exit</title>
<path fill="none" stroke="#555555" d="M169.68,-749.61C160.33,-728.66 145.12,-694.57 134.84,-671.55"/>
<polygon fill="#555555" stroke="#555555" points="137.47,-670.57 131.65,-664.4 132.36,-672.85 137.47,-670.57"/>
<text xml:space="preserve" text-anchor="middle" x="180.3" y="-709.75" font-family="Arial" font-size="10.00">next</text>
<text xml:space="preserve" text-anchor="middle" x="180.3" y="-697.75" font-family="Arial" font-size="10.00">timestamp</text>
</g>
<!-- check_exit&#45;&gt;in_event -->
<g id="edge6" class="edge">
<title>check_exit&#45;&gt;in_event</title>
<path fill="none" stroke="#555555" stroke-dasharray="5,2" d="M108.51,-660.78C101.08,-668.31 92.94,-678.36 89,-689.25 83.55,-704.29 80.5,-711.7 89,-725.25 93.86,-732.99 100.54,-739.37 108.09,-744.62"/>
<polygon fill="#555555" stroke="#555555" points="106.34,-746.83 114.6,-748.7 109.31,-742.08 106.34,-746.83"/>
<text xml:space="preserve" text-anchor="middle" x="111.5" y="-715.75" font-family="Arial" font-size="10.00">NO</text>
<text xml:space="preserve" text-anchor="middle" x="111.5" y="-703.75" font-family="Arial" font-size="10.00">(event</text>
<text xml:space="preserve" text-anchor="middle" x="111.5" y="-691.75" font-family="Arial" font-size="10.00">continues)</text>
</g>
<!-- quiet_timer -->
<g id="node5" class="node">
<title>quiet_timer</title>
<path fill="#fff7e6" stroke="#b36b00" stroke-width="1.5" d="M177.75,-542.25C177.75,-542.25 70.25,-542.25 70.25,-542.25 64.25,-542.25 58.25,-536.25 58.25,-530.25 58.25,-530.25 58.25,-489.25 58.25,-489.25 58.25,-483.25 64.25,-477.25 70.25,-477.25 70.25,-477.25 177.75,-477.25 177.75,-477.25 183.75,-477.25 189.75,-483.25 189.75,-489.25 189.75,-489.25 189.75,-530.25 189.75,-530.25 189.75,-536.25 183.75,-542.25 177.75,-542.25"/>
<text xml:space="preserve" text-anchor="middle" x="124" y="-526.85" font-family="Arial" font-size="12.00" fill="#5a3800">Quiet Timer</text>
<text xml:space="preserve" text-anchor="middle" x="124" y="-512.6" font-family="Arial" font-size="12.00" fill="#5a3800">Counting consecutive</text>
<text xml:space="preserve" text-anchor="middle" x="124" y="-498.35" font-family="Arial" font-size="12.00" fill="#5a3800">points &lt; 5 pfu</text>
<text xml:space="preserve" text-anchor="middle" x="124" y="-484.1" font-family="Arial" font-size="12.00" fill="#5a3800">(need 24 = 2 hours)</text>
</g>
<!-- check_exit&#45;&gt;quiet_timer -->
<g id="edge5" class="edge">
<title>check_exit&#45;&gt;quiet_timer</title>
<path fill="none" stroke="#555555" d="M124,-627.67C124,-608.6 124,-577.49 124,-552.16"/>
<polygon fill="#555555" stroke="#555555" points="126.8,-552.28 124,-544.28 121.2,-552.28 126.8,-552.28"/>
<text xml:space="preserve" text-anchor="middle" x="134.12" y="-581.75" font-family="Arial" font-size="10.00">YES</text>
</g>
<!-- check_quiet -->
<g id="node6" class="node">
<title>check_quiet</title>
<path fill="#0039a6" stroke="black" stroke-width="1.5" d="M188.86,-421.78C188.86,-421.78 123.89,-395.72 123.89,-395.72 118.32,-393.48 118.32,-389.02 123.89,-386.78 123.89,-386.78 188.86,-360.72 188.86,-360.72 194.43,-358.48 205.57,-358.48 211.14,-360.72 211.14,-360.72 276.11,-386.78 276.11,-386.78 281.68,-389.02 281.68,-393.48 276.11,-395.72 276.11,-395.72 211.14,-421.78 211.14,-421.78 205.57,-424.02 194.43,-424.02 188.86,-421.78"/>
<text xml:space="preserve" text-anchor="middle" x="200" y="-394.3" font-family="Arial" font-size="11.00" fill="white">24 consecutive</text>
<text xml:space="preserve" text-anchor="middle" x="200" y="-380.8" font-family="Arial" font-size="11.00" fill="white">points &lt; 5 pfu?</text>
</g>
<!-- quiet_timer&#45;&gt;check_quiet -->
<g id="edge7" class="edge">
<title>quiet_timer&#45;&gt;check_quiet</title>
<path fill="none" stroke="#555555" d="M144.97,-476.61C154.92,-461.35 166.84,-443.08 177.03,-427.45"/>
<polygon fill="#555555" stroke="#555555" points="179.34,-429.05 181.36,-420.82 174.65,-425.99 179.34,-429.05"/>
</g>
<!-- check_quiet&#45;&gt;in_event -->
<g id="edge9" class="edge">
<title>check_quiet&#45;&gt;in_event</title>
<path fill="none" stroke="#555555" stroke-dasharray="5,2" d="M203.69,-425.31C205.3,-441.02 207.03,-460.08 208,-477.25 213.31,-571.34 211.11,-595.02 212,-689.25 212.15,-705.25 217.25,-710.14 212,-725.25 209.9,-731.29 206.56,-737.12 202.78,-742.44"/>
<polygon fill="#555555" stroke="#555555" points="200.66,-740.6 197.94,-748.63 205.07,-744.05 200.66,-740.6"/>
<text xml:space="preserve" text-anchor="middle" x="240.61" y="-593.75" font-family="Arial" font-size="10.00">NO</text>
<text xml:space="preserve" text-anchor="middle" x="240.61" y="-581.75" font-family="Arial" font-size="10.00">flux &gt;= 5 pfu</text>
<text xml:space="preserve" text-anchor="middle" x="240.61" y="-569.75" font-family="Arial" font-size="10.00">(timer resets)</text>
</g>
<!-- end_event -->
<g id="node7" class="node">
<title>end_event</title>
<path fill="#fff0f5" stroke="#990050" stroke-width="1.5" d="M250,-282.25C250,-282.25 150,-282.25 150,-282.25 144,-282.25 138,-276.25 138,-270.25 138,-270.25 138,-243.5 138,-243.5 138,-237.5 144,-231.5 150,-231.5 150,-231.5 250,-231.5 250,-231.5 256,-231.5 262,-237.5 262,-243.5 262,-243.5 262,-270.25 262,-270.25 262,-276.25 256,-282.25 250,-282.25"/>
<text xml:space="preserve" text-anchor="middle" x="200" y="-266.85" font-family="Arial" font-size="12.00" fill="#660033">END EVENT</text>
<text xml:space="preserve" text-anchor="middle" x="200" y="-252.6" font-family="Arial" font-size="12.00" fill="#660033">Backdate end to first</text>
<text xml:space="preserve" text-anchor="middle" x="200" y="-238.35" font-family="Arial" font-size="12.00" fill="#660033">point below 5 pfu</text>
</g>
<!-- check_quiet&#45;&gt;end_event -->
<g id="edge8" class="edge">
<title>check_quiet&#45;&gt;end_event</title>
<path fill="none" stroke="#555555" d="M200,-355.47C200,-335.94 200,-311.66 200,-292.21"/>
<polygon fill="#555555" stroke="#555555" points="202.8,-292.32 200,-284.32 197.2,-292.32 202.8,-292.32"/>
<text xml:space="preserve" text-anchor="middle" x="232.25" y="-321.75" font-family="Arial" font-size="10.00">YES</text>
<text xml:space="preserve" text-anchor="middle" x="232.25" y="-309.75" font-family="Arial" font-size="10.00">(2 hrs elapsed)</text>
</g>
<!-- check_dur -->
<g id="node8" class="node">
<title>check_dur</title>
<path fill="#0039a6" stroke="black" stroke-width="1.5" d="M189.24,-175.18C189.24,-175.18 140.01,-150.82 140.01,-150.82 134.63,-148.16 134.63,-142.84 140.01,-140.18 140.01,-140.18 189.24,-115.82 189.24,-115.82 194.62,-113.16 205.38,-113.16 210.76,-115.82 210.76,-115.82 259.99,-140.18 259.99,-140.18 265.37,-142.84 265.37,-148.16 259.99,-150.82 259.99,-150.82 210.76,-175.18 210.76,-175.18 205.38,-177.84 194.62,-177.84 189.24,-175.18"/>
<text xml:space="preserve" text-anchor="middle" x="200" y="-148.55" font-family="Arial" font-size="11.00" fill="white">Duration</text>
<text xml:space="preserve" text-anchor="middle" x="200" y="-135.05" font-family="Arial" font-size="11.00" fill="white">&gt;= 30 min?</text>
</g>
<!-- end_event&#45;&gt;check_dur -->
<g id="edge10" class="edge">
<title>end_event&#45;&gt;check_dur</title>
<path fill="none" stroke="#555555" d="M200,-230.78C200,-218.79 200,-204.08 200,-190.33"/>
<polygon fill="#555555" stroke="#555555" points="202.8,-190.52 200,-182.52 197.2,-190.52 202.8,-190.52"/>
</g>
<!-- emit -->
<g id="node9" class="node">
<title>emit</title>
<path fill="#e6faef" stroke="#1b7340" stroke-width="1.5" d="M161.12,-36.5C161.12,-36.5 34.88,-36.5 34.88,-36.5 28.88,-36.5 22.88,-30.5 22.88,-24.5 22.88,-24.5 22.88,-12 22.88,-12 22.88,-6 28.88,0 34.88,0 34.88,0 161.12,0 161.12,0 167.12,0 173.12,-6 173.12,-12 173.12,-12 173.12,-24.5 173.12,-24.5 173.12,-30.5 167.12,-36.5 161.12,-36.5"/>
<text xml:space="preserve" text-anchor="middle" x="98" y="-21.1" font-family="Arial" font-size="12.00" fill="#0a3d1a">EMIT EVENT</text>
<text xml:space="preserve" text-anchor="middle" x="98" y="-6.85" font-family="Arial" font-size="12.00" fill="#0a3d1a">Record start/end/duration</text>
</g>
<!-- check_dur&#45;&gt;emit -->
<g id="edge11" class="edge">
<title>check_dur&#45;&gt;emit</title>
<path fill="none" stroke="#555555" d="M179.85,-119.75C162.09,-97.94 136.33,-66.31 118.47,-44.39"/>
<polygon fill="#555555" stroke="#555555" points="120.69,-42.68 113.47,-38.24 116.35,-46.21 120.69,-42.68"/>
<text xml:space="preserve" text-anchor="middle" x="159.12" y="-70" font-family="Arial" font-size="10.00">YES</text>
</g>
<!-- discard -->
<g id="node10" class="node">
<title>discard</title>
<path fill="#fff0f0" stroke="#cc0000" stroke-width="1.5" d="M316.12,-36.25C316.12,-36.25 249.88,-36.25 249.88,-36.25 243.88,-36.25 237.88,-30.25 237.88,-24.25 237.88,-24.25 237.88,-12.25 237.88,-12.25 237.88,-6.25 243.88,-0.25 249.88,-0.25 249.88,-0.25 316.12,-0.25 316.12,-0.25 322.12,-0.25 328.12,-6.25 328.12,-12.25 328.12,-12.25 328.12,-24.25 328.12,-24.25 328.12,-30.25 322.12,-36.25 316.12,-36.25"/>
<text xml:space="preserve" text-anchor="middle" x="283" y="-21.3" font-family="Arial" font-size="11.00" fill="#990000">DISCARD</text>
<text xml:space="preserve" text-anchor="middle" x="283" y="-7.8" font-family="Arial" font-size="11.00" fill="#990000">(noise / artifact)</text>
</g>
<!-- check_dur&#45;&gt;discard -->
<g id="edge12" class="edge">
<title>check_dur&#45;&gt;discard</title>
<path fill="none" stroke="#555555" d="M217.2,-118.55C231.6,-96.82 252.02,-65.99 266.29,-44.47"/>
<polygon fill="#555555" stroke="#555555" points="268.5,-46.19 270.59,-37.98 263.84,-43.1 268.5,-46.19"/>
<text xml:space="preserve" text-anchor="middle" x="275.91" y="-76" font-family="Arial" font-size="10.00">NO</text>
<text xml:space="preserve" text-anchor="middle" x="275.91" y="-64" font-family="Arial" font-size="10.00">(&lt; 30 min)</text>
</g>
<!-- emit&#45;&gt;idle -->
<g id="edge13" class="edge">
<title>emit&#45;&gt;idle</title>
<path fill="none" stroke="#555555" stroke-dasharray="1,5" d="M70.96,-37.23C41.95,-58.9 0,-98.25 0,-144.5 0,-911.75 0,-911.75 0,-911.75 0,-973.32 63.96,-1014.03 115.2,-1036.76"/>
<polygon fill="#555555" stroke="#555555" points="113.78,-1039.2 122.24,-1039.79 116,-1034.06 113.78,-1039.2"/>
</g>
<!-- discard&#45;&gt;idle -->
<g id="edge14" class="edge">
<title>discard&#45;&gt;idle</title>
<path fill="none" stroke="#555555" stroke-dasharray="1,5" d="M301.42,-36.87C323.05,-59.55 356,-101.21 356,-144.5 356,-911.75 356,-911.75 356,-911.75 356,-973.32 292.04,-1014.03 240.8,-1036.76"/>
<polygon fill="#555555" stroke="#555555" points="240,-1034.06 233.76,-1039.79 242.22,-1039.2 240,-1034.06"/>
</g>
</g>
</svg>
