<?xml version="1.0" encoding="UTF-8" standalone="no"?>
<!DOCTYPE svg PUBLIC "-//W3C//DTD SVG 1.1//EN"
 "http://www.w3.org/Graphics/SVG/1.1/DTD/svg11.dtd">
<!-- Generated by graphviz version 14.1.4 (20260321.0153)
 -->
<!-- Title: pipeline Pages: 1 -->
<svg width="1529pt" height="333pt"
 viewBox="0.00 0.00 1529.00 333.00" xmlns="http://www.w3.org/2000/svg" xmlns:xlink="http://www.w3.org/1999/xlink">
<g id="graph0" class="graph" transform="scale(1 1) rotate(0) translate(28.8 303.8)">
<title>pipeline</title>
<polygon fill="white" stroke="none" points="-28.8,28.8 -28.8,-303.8 1499.8,-303.8 1499.8,28.8 -28.8,28.8"/>
<g id="clust1" class="cluster">
<title>cluster_adapters</title>
<path fill="white" stroke="#0039a6" stroke-dasharray="5,2" d="M220.75,-8C220.75,-8 358.5,-8 358.5,-8 364.5,-8 370.5,-14 370.5,-20 370.5,-20 370.5,-255 370.5,-255 370.5,-261 364.5,-267 358.5,-267 358.5,-267 220.75,-267 220.75,-267 214.75,-267 208.75,-261 208.75,-255 208.75,-255 208.75,-20 208.75,-20 208.75,-14 214.75,-8 220.75,-8"/>
<text xml:space="preserve" text-anchor="middle" x="289.62" y="-251.6" font-family="Arial" font-size="12.00" fill="#0039a6">Instrument Adapters</text>
</g>
<!-- raw -->
<g id="node1" class="node">
<title>raw</title>
<polygon fill="#f5f5f5" stroke="#0039a6" stroke-width="1.5" points="145.75,-151.38 0,-151.38 0,-100.62 151.75,-100.62 151.75,-145.38 145.75,-151.38"/>
<polyline fill="none" stroke="#0039a6" stroke-width="1.5" points="145.75,-151.38 145.75,-145.38"/>
<polyline fill="none" stroke="#0039a6" stroke-width="1.5" points="151.75,-145.38 145.75,-145.38"/>
<text xml:space="preserve" text-anchor="middle" x="75.88" y="-135.97" font-family="Arial" font-size="12.00" fill="#111111">Raw Satellite Data</text>
<text xml:space="preserve" text-anchor="middle" x="75.88" y="-121.72" font-family="Arial" font-size="12.00" fill="#111111">GOES CSV | SOHO CDF</text>
<text xml:space="preserve" text-anchor="middle" x="75.88" y="-107.47" font-family="Arial" font-size="12.00" fill="#111111">GOES&#45;16 NetCDF</text>
</g>
<!-- goes_adapt -->
<g id="node2" class="node">
<title>goes_adapt</title>
<path fill="#dae5f5" stroke="#0039a6" stroke-width="1.5" d="M344.5,-104.25C344.5,-104.25 234.75,-104.25 234.75,-104.25 228.75,-104.25 222.75,-98.25 222.75,-92.25 222.75,-92.25 222.75,-27.75 222.75,-27.75 222.75,-21.75 228.75,-15.75 234.75,-15.75 234.75,-15.75 344.5,-15.75 344.5,-15.75 350.5,-15.75 356.5,-21.75 356.5,-27.75 356.5,-27.75 356.5,-92.25 356.5,-92.25 356.5,-98.25 350.5,-104.25 344.5,-104.25"/>
<text xml:space="preserve" text-anchor="middle" x="289.62" y="-89.8" font-family="Arial" font-size="11.00" fill="#0a2a6e">GOES Adapter</text>
<text xml:space="preserve" text-anchor="middle" x="289.62" y="-63.3" font-family="Arial" font-size="11.00" fill="#0a2a6e">EPS: read p3_flux_ic</text>
<text xml:space="preserve" text-anchor="middle" x="289.62" y="-49.8" font-family="Arial" font-size="11.00" fill="#0a2a6e">EPEAD: read ZPGT10E</text>
<text xml:space="preserve" text-anchor="middle" x="289.62" y="-36.3" font-family="Arial" font-size="11.00" fill="#0a2a6e">SGPS: derive from</text>
<text xml:space="preserve" text-anchor="middle" x="289.62" y="-22.8" font-family="Arial" font-size="11.00" fill="#0a2a6e">13 diff. channels</text>
</g>
<!-- raw&#45;&gt;goes_adapt -->
<g id="edge1" class="edge">
<title>raw&#45;&gt;goes_adapt</title>
<path fill="none" stroke="#555555" d="M152.42,-102.45C172.2,-96.29 193.52,-89.64 213.28,-83.48"/>
<polygon fill="#555555" stroke="#555555" points="213.99,-86.19 220.8,-81.14 212.33,-80.85 213.99,-86.19"/>
</g>
<!-- soho_adapt -->
<g id="node3" class="node">
<title>soho_adapt</title>
<path fill="#fff3e6" stroke="#cc5500" stroke-width="1.5" d="M350.5,-236.25C350.5,-236.25 228.75,-236.25 228.75,-236.25 222.75,-236.25 216.75,-230.25 216.75,-224.25 216.75,-224.25 216.75,-159.75 216.75,-159.75 216.75,-153.75 222.75,-147.75 228.75,-147.75 228.75,-147.75 350.5,-147.75 350.5,-147.75 356.5,-147.75 362.5,-153.75 362.5,-159.75 362.5,-159.75 362.5,-224.25 362.5,-224.25 362.5,-230.25 356.5,-236.25 350.5,-236.25"/>
<text xml:space="preserve" text-anchor="middle" x="289.62" y="-221.8" font-family="Arial" font-size="11.00" fill="#7a3300">SOHO Adapter</text>
<text xml:space="preserve" text-anchor="middle" x="289.62" y="-195.3" font-family="Arial" font-size="11.00" fill="#7a3300">EPHIN differential</text>
<text xml:space="preserve" text-anchor="middle" x="289.62" y="-181.8" font-family="Arial" font-size="11.00" fill="#7a3300">flux x eff. width</text>
<text xml:space="preserve" text-anchor="middle" x="289.62" y="-168.3" font-family="Arial" font-size="11.00" fill="#7a3300">P8x15 + P25x16 + P41x12</text>
<text xml:space="preserve" text-anchor="middle" x="289.62" y="-154.8" font-family="Arial" font-size="11.00" fill="#7a3300">= &gt;10 MeV proxy</text>
</g>
<!-- raw&#45;&gt;soho_adapt -->
<g id="edge2" class="edge">
<title>raw&#45;&gt;soho_adapt</title>
<path fill="none" stroke="#555555" d="M152.42,-149.55C170.29,-155.12 189.41,-161.07 207.5,-166.72"/>
<polygon fill="#555555" stroke="#555555" points="206.38,-169.3 214.85,-169.01 208.05,-163.95 206.38,-169.3"/>
</g>
<!-- flux -->
<g id="node4" class="node">
<title>flux</title>
<path fill="#ffffff" stroke="#008080" stroke-width="1.5" d="M550,-165.5C550,-165.5 439.5,-165.5 439.5,-165.5 433.5,-165.5 427.5,-159.5 427.5,-153.5 427.5,-153.5 427.5,-98.5 427.5,-98.5 427.5,-92.5 433.5,-86.5 439.5,-86.5 439.5,-86.5 550,-86.5 550,-86.5 556,-86.5 562,-92.5 562,-98.5 562,-98.5 562,-153.5 562,-153.5 562,-159.5 556,-165.5 550,-165.5"/>
<text xml:space="preserve" text-anchor="middle" x="494.75" y="-150.1" font-family="Arial" font-size="12.00" fill="#006060">Flux Computation</text>
<text xml:space="preserve" text-anchor="middle" x="494.75" y="-121.85" font-family="Arial" font-size="12.00" fill="#006060">J(&gt;10 MeV) in pfu</text>
<text xml:space="preserve" text-anchor="middle" x="494.75" y="-107.6" font-family="Arial" font-size="12.00" fill="#006060">partial&#45;bin correction</text>
<text xml:space="preserve" text-anchor="middle" x="494.75" y="-93.35" font-family="Arial" font-size="12.00" fill="#006060">(flat&#45;spectrum approx.)</text>
</g>
<!-- goes_adapt&#45;&gt;flux -->
<g id="edge3" class="edge">
<title>goes_adapt&#45;&gt;flux</title>
<path fill="none" stroke="#555555" d="M357.14,-81.61C376.69,-87.96 398.22,-94.96 418.29,-101.48"/>
<polygon fill="#555555" stroke="#555555" points="417.18,-104.06 425.65,-103.87 418.91,-98.74 417.18,-104.06"/>
</g>
<!-- soho_adapt&#45;&gt;flux -->
<g id="edge4" class="edge">
<title>soho_adapt&#45;&gt;flux</title>
<path fill="none" stroke="#555555" d="M363.1,-168.45C381.02,-162.63 400.25,-156.38 418.31,-150.51"/>
<polygon fill="#555555" stroke="#555555" points="418.88,-153.27 425.63,-148.13 417.15,-147.94 418.88,-153.27"/>
</g>
<!-- detector -->
<g id="node5" class="node">
<title>detector</title>
<path fill="#e6faef" stroke="#1b7340" stroke-width="1.5" d="M731.5,-170.25C731.5,-170.25 639,-170.25 639,-170.25 633,-170.25 627,-164.25 627,-158.25 627,-158.25 627,-93.75 627,-93.75 627,-87.75 633,-81.75 639,-81.75 639,-81.75 731.5,-81.75 731.5,-81.75 737.5,-81.75 743.5,-87.75 743.5,-93.75 743.5,-93.75 743.5,-158.25 743.5,-158.25 743.5,-164.25 737.5,-170.25 731.5,-170.25"/>
<text xml:space="preserve" text-anchor="middle" x="685.25" y="-155.8" font-family="Arial" font-size="11.00" fill="#0a3d1a">Detection Engine</text>
<text xml:space="preserve" text-anchor="middle" x="685.25" y="-129.3" font-family="Arial" font-size="11.00" fill="#0a3d1a">Entry: &gt;= 10 pfu +</text>
<text xml:space="preserve" text-anchor="middle" x="685.25" y="-115.8" font-family="Arial" font-size="11.00" fill="#0a3d1a">rising gradient (3/4)</text>
<text xml:space="preserve" text-anchor="middle" x="685.25" y="-102.3" font-family="Arial" font-size="11.00" fill="#0a3d1a">Exit: &lt; 5 pfu for 2 hrs</text>
<text xml:space="preserve" text-anchor="middle" x="685.25" y="-88.8" font-family="Arial" font-size="11.00" fill="#0a3d1a">Min duration: 30 min</text>
</g>
<!-- flux&#45;&gt;detector -->
<g id="edge5" class="edge">
<title>flux&#45;&gt;detector</title>
<path fill="none" stroke="#555555" d="M562.74,-126C580.49,-126 599.66,-126 617.4,-126"/>
<polygon fill="#555555" stroke="#555555" points="617.02,-128.8 625.02,-126 617.02,-123.2 617.02,-128.8"/>
</g>
<!-- events -->
<g id="node6" class="node">
<title>events</title>
<path fill="#dae5f5" stroke="#0039a6" stroke-width="1.5" d="M921.25,-163.5C921.25,-163.5 820.5,-163.5 820.5,-163.5 814.5,-163.5 808.5,-157.5 808.5,-151.5 808.5,-151.5 808.5,-100.5 808.5,-100.5 808.5,-94.5 814.5,-88.5 820.5,-88.5 820.5,-88.5 921.25,-88.5 921.25,-88.5 927.25,-88.5 933.25,-94.5 933.25,-100.5 933.25,-100.5 933.25,-151.5 933.25,-151.5 933.25,-157.5 927.25,-163.5 921.25,-163.5"/>
<text xml:space="preserve" text-anchor="middle" x="870.88" y="-149.05" font-family="Arial" font-size="11.00" fill="#0a2a6e">Event Extraction</text>
<text xml:space="preserve" text-anchor="middle" x="870.88" y="-135.55" font-family="Arial" font-size="11.00" fill="#0a2a6e">&amp; Merge</text>
<text xml:space="preserve" text-anchor="middle" x="870.88" y="-109.05" font-family="Arial" font-size="11.00" fill="#0a2a6e">mask &#45;&gt; intervals</text>
<text xml:space="preserve" text-anchor="middle" x="870.88" y="-95.55" font-family="Arial" font-size="11.00" fill="#0a2a6e">merge gaps &lt;= 30 min</text>
</g>
<!-- detector&#45;&gt;events -->
<g id="edge6" class="edge">
<title>detector&#45;&gt;events</title>
<path fill="none" stroke="#555555" d="M744.1,-126C761.38,-126 780.52,-126 798.55,-126"/>
<polygon fill="#555555" stroke="#555555" points="798.35,-128.8 806.35,-126 798.35,-123.2 798.35,-128.8"/>
</g>
<!-- fusion -->
<g id="node7" class="node">
<title>fusion</title>
<path fill="#fff7e6" stroke="#b36b00" stroke-width="1.5" d="M1108,-170.25C1108,-170.25 1010.25,-170.25 1010.25,-170.25 1004.25,-170.25 998.25,-164.25 998.25,-158.25 998.25,-158.25 998.25,-93.75 998.25,-93.75 998.25,-87.75 1004.25,-81.75 1010.25,-81.75 1010.25,-81.75 1108,-81.75 1108,-81.75 1114,-81.75 1120,-87.75 1120,-93.75 1120,-93.75 1120,-158.25 1120,-158.25 1120,-164.25 1114,-170.25 1108,-170.25"/>
<text xml:space="preserve" text-anchor="middle" x="1059.12" y="-155.8" font-family="Arial" font-size="11.00" fill="#5a3800">Multi&#45;Instrument</text>
<text xml:space="preserve" text-anchor="middle" x="1059.12" y="-142.3" font-family="Arial" font-size="11.00" fill="#5a3800">Fusion</text>
<text xml:space="preserve" text-anchor="middle" x="1059.12" y="-115.8" font-family="Arial" font-size="11.00" fill="#5a3800">GOES + SOHO union</text>
<text xml:space="preserve" text-anchor="middle" x="1059.12" y="-102.3" font-family="Arial" font-size="11.00" fill="#5a3800">merge overlapping</text>
<text xml:space="preserve" text-anchor="middle" x="1059.12" y="-88.8" font-family="Arial" font-size="11.00" fill="#5a3800">or close (&lt;= 30 min)</text>
</g>
<!-- events&#45;&gt;fusion -->
<g id="edge7" class="edge">
<title>events&#45;&gt;fusion</title>
<path fill="none" stroke="#555555" d="M933.89,-126C951.38,-126 970.51,-126 988.41,-126"/>
<polygon fill="#555555" stroke="#555555" points="988.13,-128.8 996.13,-126 988.13,-123.2 988.13,-128.8"/>
</g>
<!-- validation -->
<g id="node8" class="node">
<title>validation</title>
<path fill="#f0edf5" stroke="#4b2177" stroke-width="1.5" d="M1294,-170.25C1294,-170.25 1197,-170.25 1197,-170.25 1191,-170.25 1185,-164.25 1185,-158.25 1185,-158.25 1185,-93.75 1185,-93.75 1185,-87.75 1191,-81.75 1197,-81.75 1197,-81.75 1294,-81.75 1294,-81.75 1300,-81.75 1306,-87.75 1306,-93.75 1306,-93.75 1306,-158.25 1306,-158.25 1306,-164.25 1300,-170.25 1294,-170.25"/>
<text xml:space="preserve" text-anchor="middle" x="1245.5" y="-155.8" font-family="Arial" font-size="11.00" fill="#2d1050">Evaluation</text>
<text xml:space="preserve" text-anchor="middle" x="1245.5" y="-129.3" font-family="Arial" font-size="11.00" fill="#2d1050">vs. GSEP catalog</text>
<text xml:space="preserve" text-anchor="middle" x="1245.5" y="-115.8" font-family="Arial" font-size="11.00" fill="#2d1050">(1995&#45;2017)</text>
<text xml:space="preserve" text-anchor="middle" x="1245.5" y="-102.3" font-family="Arial" font-size="11.00" fill="#2d1050">Precision / Recall / F1</text>
<text xml:space="preserve" text-anchor="middle" x="1245.5" y="-88.8" font-family="Arial" font-size="11.00" fill="#2d1050">FAR / onset timing</text>
</g>
<!-- fusion&#45;&gt;validation -->
<g id="edge8" class="edge">
<title>fusion&#45;&gt;validation</title>
<path fill="none" stroke="#555555" d="M1120.5,-126C1137.94,-126 1157.11,-126 1175.05,-126"/>
<polygon fill="#555555" stroke="#555555" points="1174.79,-128.8 1182.79,-126 1174.79,-123.2 1174.79,-128.8"/>
</g>
<!-- output -->
<g id="node9" class="node">
<title>output</title>
<polygon fill="#f5f5f5" stroke="#0039a6" stroke-width="1.5" points="1465,-163.5 1371,-163.5 1371,-88.5 1471,-88.5 1471,-157.5 1465,-163.5"/>
<polyline fill="none" stroke="#0039a6" stroke-width="1.5" points="1465,-163.5 1465,-157.5"/>
<polyline fill="none" stroke="#0039a6" stroke-width="1.5" points="1471,-157.5 1465,-157.5"/>
<text xml:space="preserve" text-anchor="middle" x="1421" y="-149.05" font-family="Arial" font-size="11.00" fill="#111111">Outputs</text>
<text xml:space="preserve" text-anchor="middle" x="1421" y="-122.55" font-family="Arial" font-size="11.00" fill="#111111">Event CSVs</text>
<text xml:space="preserve" text-anchor="middle" x="1421" y="-109.05" font-family="Arial" font-size="11.00" fill="#111111">Summary metrics</text>
<text xml:space="preserve" text-anchor="middle" x="1421" y="-95.55" font-family="Arial" font-size="11.00" fill="#111111">Poster figures</text>
</g>
<!-- validation&#45;&gt;output -->
<g id="edge9" class="edge">
<title>validation&#45;&gt;output</title>
<path fill="none" stroke="#555555" d="M1306.69,-126C1324.2,-126 1343.31,-126 1360.75,-126"/>
<polygon fill="#555555" stroke="#555555" points="1360.74,-128.8 1368.74,-126 1360.74,-123.2 1360.74,-128.8"/>
</g>
</g>
</svg>
